<svg width="90" height="86" viewBox="0 0 90 86" fill="none" xmlns="http://www.w3.org/2000/svg">
<path d="M14.3025 44.1729C13.5215 43.3918 13.5215 42.1255 14.3025 41.3445L18.8968 36.7502C23.5831 32.0639 31.1811 32.0639 35.8673 36.7502L40.4616 41.3445C41.2426 42.1255 41.2426 43.3918 40.4616 44.1729L35.8673 48.7671C31.181 53.4534 23.5831 53.4534 18.8968 48.7671L14.3025 44.1729Z" stroke="white" stroke-width="4"/>
<path d="M48.4055 44.1729C47.6244 43.3918 47.6244 42.1255 48.4055 41.3445L52.9997 36.7502C57.686 32.0639 65.284 32.0639 69.9702 36.7502L74.5645 41.3445C75.3455 42.1255 75.3455 43.3918 74.5645 44.1729L69.9702 48.7671C65.284 53.4534 57.686 53.4534 52.9997 48.7671L48.4055 44.1729Z" stroke="white" stroke-width="4"/>
<path d="M43.0193 12.6277C43.8004 11.8467 45.0667 11.8467 45.8477 12.6277L50.442 17.222C55.1283 21.9083 55.1283 29.5062 50.442 34.1925L45.8477 38.7868C45.0667 39.5678 43.8004 39.5678 43.0193 38.7868L38.4251 34.1925C33.7388 29.5062 33.7388 21.9083 38.4251 17.222L43.0193 12.6277Z" stroke="white" stroke-width="4"/>
<path d="M42.7953 45.0364C43.5764 44.2553 44.8427 44.2553 45.6237 45.0364L50.218 49.6306C54.9043 54.3169 54.9043 61.9149 50.218 66.6012L45.6237 71.1954C44.8427 71.9764 43.5764 71.9764 42.7953 71.1954L38.2011 66.6012C33.5148 61.9149 33.5148 54.3169 38.2011 49.6306L42.7953 45.0364Z" stroke="white" stroke-width="4"/>
<path d="M87.4316 42.6222C87.4316 46.8679 83.6928 49.6342 82.5218 53.5015C81.1332 58.0872 82.0925 63.6792 79.3263 67.4661C76.5848 71.2191 70.947 72.0877 67.1375 74.7731C63.99 76.9919 62.8177 81.2193 59.1181 82.5336C54.6184 84.1322 49.7696 82.5336 44.7158 82.5336C39.662 82.5336 34.8133 84.1322 30.3136 82.5336C26.1595 81.0578 23.9395 77.3769 20.4938 74.7731C17.1568 72.2513 12.5686 70.8382 10.1053 67.4661C7.33912 63.6792 7.4801 58.0872 6.09155 53.5015C4.92053 49.6342 2 46.8679 2 42.6222C2 38.3765 5.73884 34.2766 6.90986 30.4093C8.29842 25.8237 7.33912 21.5651 10.1053 17.7783C12.5686 14.4062 17.1568 13.3178 20.4938 10.796C23.9395 8.19216 26.1595 4.18651 30.3136 2.71074C34.8133 1.11218 39.662 2.71068 44.7158 2.71068C49.7696 2.71068 54.6184 1.11218 59.1181 2.71074C62.8177 4.02504 63.99 8.57723 67.1375 10.796C70.947 13.4814 77.2846 14.3683 79.3263 17.7783C81.3681 21.1882 81.1332 25.8237 82.5218 30.4093C83.6928 34.2766 87.4316 38.3765 87.4316 42.6222Z" stroke="white" stroke-width="4"/>
</svg>
